<?xml version="1.0" standalone="no"?>
<!DOCTYPE svg PUBLIC "-//W3C//DTD SVG 20010904//EN"
 "http://www.w3.org/TR/2001/REC-SVG-20010904/DTD/svg10.dtd">
<svg version="1.0" xmlns="http://www.w3.org/2000/svg"
 width="512.000000pt" height="512.000000pt" viewBox="0 0 512.000000 512.000000"
 preserveAspectRatio="xMidYMid meet">
<metadata>
Created by potrace 1.11, written by Peter Selinger 2001-2013
</metadata>
<g transform="translate(0.000000,512.000000) scale(0.100000,-0.100000)"
fill="#000000" stroke="none">
<path d="M2315 5109 c-563 -54 -1111 -306 -1519 -699 -436 -421 -702 -947
-777 -1540 -17 -135 -18 -507 -1 -625 67 -468 230 -866 503 -1232 94 -126 366
-398 492 -492 575 -429 1273 -601 1972 -485 239 40 465 113 701 229 696 340
1212 997 1374 1750 43 199 54 313 54 545 0 124 -6 265 -13 315 -84 608 -343
1118 -783 1540 -530 509 -1265 764 -2003 694z m570 -224 c424 -63 818 -234
1145 -498 41 -34 76 -62 78 -63 13 -9 -38 -56 -75 -70 -57 -22 -103 -60 -103
-84 0 -34 12 -50 36 -50 20 0 29 -9 44 -45 l19 -44 45 16 c25 10 47 15 49 13
3 -3 8 -27 12 -54 l7 -49 -55 6 c-30 3 -74 3 -97 0 -38 -5 -47 -12 -87 -69
-45 -62 -46 -62 -104 -69 -62 -7 -62 -7 -74 -77 -5 -34 -4 -38 20 -44 21 -5
25 -11 21 -28 -3 -11 -6 -26 -6 -32 0 -8 -17 -8 -61 1 -49 10 -71 10 -115 0
-30 -7 -56 -14 -57 -16 -20 -29 -25 -64 -17 -116 6 -32 10 -62 10 -66 0 -18
73 -37 145 -37 78 0 115 11 115 34 0 7 28 50 62 95 l62 83 41 -6 c37 -5 45 -2
70 24 35 36 43 37 51 6 5 -22 41 -49 177 -138 7 -4 6 -12 -3 -23 -11 -13 -23
-15 -53 -11 -40 7 -40 7 -25 -16 22 -33 59 -44 97 -28 27 11 31 17 31 50 0 21
6 41 13 44 16 6 -24 41 -83 71 -37 19 -48 31 -62 69 l-17 46 51 0 c47 0 54 -4
107 -51 50 -46 57 -57 63 -102 5 -40 14 -57 49 -93 48 -49 50 -48 68 32 9 38
19 54 41 67 25 15 28 15 34 1 3 -9 6 -31 6 -49 0 -24 9 -45 31 -70 29 -33 34
-35 94 -35 l63 0 31 -91 c17 -51 28 -96 25 -100 -3 -5 -47 -9 -98 -9 l-93 0
-56 43 c-55 41 -60 42 -115 37 l-57 -5 -3 -37 c-4 -42 -22 -49 -58 -23 -12 8
-69 26 -128 41 l-106 26 0 70 0 70 -27 -6 c-16 -3 -74 -8 -131 -12 -84 -5
-112 -11 -149 -32 -40 -22 -52 -24 -119 -19 -71 5 -77 4 -139 -31 l-65 -36 0
-67 0 -67 -129 -92 -128 -92 10 -39 c8 -32 14 -39 33 -39 21 0 24 -5 24 -34 0
-23 -7 -40 -18 -48 -15 -10 -20 -32 -26 -109 l-7 -95 116 -132 116 -132 49 0
c28 0 50 5 50 10 0 6 38 10 93 10 81 0 96 3 112 20 14 15 31 20 74 20 46 0 59
-4 82 -26 22 -21 40 -27 94 -32 37 -2 69 -10 71 -17 3 -6 0 -51 -5 -99 l-10
-88 79 -140 c44 -78 80 -146 80 -152 0 -6 -18 -45 -40 -86 -52 -98 -53 -136
-5 -189 35 -38 35 -40 35 -129 l0 -90 45 -61 c44 -60 45 -62 45 -140 l0 -80
43 -3 42 -3 -155 -156 c-215 -216 -398 -350 -645 -469 -228 -110 -427 -172
-680 -212 -185 -29 -492 -31 -670 -4 -596 90 -1124 390 -1505 856 -139 169
-293 442 -375 664 -191 516 -188 1135 8 1629 l32 82 3 -61 3 -60 44 -22 45
-22 0 -88 c0 -86 1 -89 45 -167 25 -44 49 -83 53 -86 4 -4 24 -10 44 -13 34
-6 37 -5 40 21 2 20 -10 49 -40 97 -29 46 -46 87 -53 125 -13 78 -12 81 15 81
26 0 27 -2 41 -95 4 -26 29 -74 71 -137 l65 -96 -16 -32 c-16 -31 -16 -32 25
-95 l41 -63 92 -21 c105 -24 117 -25 117 -10 0 6 16 9 38 7 33 -3 37 -6 37
-32 0 -27 3 -29 78 -48 83 -21 73 -13 189 -143 36 -39 37 -40 122 -45 47 -4
87 -8 89 -11 3 -2 7 -35 11 -74 l7 -70 -59 -40 -59 -40 -7 -72 c-3 -40 -8 -90
-11 -110 -6 -36 -1 -44 81 -147 61 -76 89 -119 93 -144 6 -32 11 -38 53 -53
26 -9 74 -36 107 -60 l60 -44 3 -205 c3 -204 3 -205 26 -208 26 -4 26 -3 6
-109 l-15 -84 40 -54 41 -55 -6 -93 -7 -93 52 -91 c40 -70 69 -107 125 -157
l73 -66 70 0 c65 0 71 2 77 22 4 19 -5 32 -47 69 l-52 46 13 47 c19 73 16 96
-12 96 -13 0 -35 10 -50 21 l-27 22 30 31 c41 42 41 74 1 83 -54 10 -34 53 25
53 13 0 59 16 102 36 70 31 82 41 100 77 12 23 55 86 97 139 l76 97 -17 71
c-17 71 -17 73 4 109 20 35 22 36 94 41 65 4 79 9 115 38 l41 33 12 113 c6 62
11 123 11 136 0 13 24 55 55 95 36 48 56 84 61 111 l6 41 -46 13 c-40 11 -50
20 -74 61 l-27 49 -99 0 c-87 0 -110 4 -186 32 l-88 32 -5 61 c-4 38 -16 78
-32 108 l-27 47 -73 0 -73 0 -49 71 c-33 50 -58 76 -81 85 -31 13 -34 12 -39
-5 -4 -16 -16 -20 -70 -23 -65 -3 -66 -3 -94 33 -25 32 -36 37 -100 49 -70 12
-74 12 -89 -8 -10 -11 -36 -42 -59 -68 l-41 -47 -77 12 c-119 19 -109 8 -117
123 -3 56 -8 103 -10 105 -1 2 -29 8 -62 14 -32 6 -60 12 -62 14 -2 2 8 26 22
54 21 40 24 55 16 76 -5 14 -12 25 -16 25 -3 0 -41 -25 -84 -55 -79 -56 -101
-62 -169 -49 -24 5 -37 16 -52 47 -18 35 -19 45 -9 86 6 25 26 72 43 104 28
52 40 63 99 93 67 34 68 34 208 34 l140 0 0 -38 c0 -35 3 -40 45 -60 25 -12
49 -22 53 -22 4 0 5 32 4 71 -4 86 1 93 131 180 77 53 87 63 87 89 0 47 126
173 224 225 42 22 75 45 73 50 -1 6 21 31 49 57 49 46 51 47 79 32 28 -14 30
-14 47 8 17 23 17 23 -22 31 -33 7 -40 12 -40 32 0 14 9 29 21 35 28 16 77 3
85 -22 5 -18 12 -20 57 -15 30 2 55 11 62 21 7 9 20 16 29 16 21 0 22 -46 0
-54 -10 -4 -14 -15 -12 -32 3 -23 12 -29 63 -45 85 -26 95 -25 95 12 0 27 -5
32 -50 51 -59 25 -62 45 -10 63 32 11 35 15 38 56 3 42 1 45 -43 72 l-45 29 0
64 c0 37 -4 64 -10 64 -6 0 -33 -11 -60 -25 -27 -14 -60 -25 -74 -25 -22 0
-24 3 -22 52 l1 52 -75 17 c-82 20 -93 19 -130 -12 -22 -19 -26 -31 -30 -102
l-5 -80 -58 -20 c-54 -18 -60 -23 -85 -73 -20 -42 -31 -54 -49 -54 -22 0 -23
4 -23 64 l0 65 -47 6 c-69 8 -130 41 -138 73 -3 15 -8 35 -11 44 -7 25 193
142 277 162 24 5 27 3 33 -29 4 -19 10 -35 14 -35 24 1 52 14 52 25 0 8 14 16
30 20 34 8 36 11 15 31 -23 24 -18 34 17 34 23 0 42 10 68 34 30 30 45 35 110
44 72 9 76 9 108 -15 18 -13 30 -29 26 -34 -3 -5 -42 -28 -87 -51 l-82 -42
115 -27 c63 -15 115 -27 116 -26 1 1 9 19 17 40 15 36 18 37 64 37 43 0 51 3
66 29 22 38 23 38 -18 45 -34 7 -35 9 -35 50 l0 43 -107 48 c-108 47 -108 47
-188 40 -58 -5 -91 -14 -123 -32 -43 -25 -43 -26 -41 -77 l3 -51 -34 3 c-70 7
-81 54 -25 103 19 17 35 35 35 40 0 14 -164 11 -182 -3 -9 -7 -19 -23 -23 -35
-5 -20 -3 -23 19 -23 22 0 26 -5 26 -29 0 -27 -3 -29 -55 -36 -41 -5 -56 -11
-60 -26 -5 -16 -16 -19 -75 -19 -62 0 -68 2 -74 23 -14 52 -9 57 47 57 47 0
56 4 96 42 41 39 43 42 25 55 -24 18 -26 17 -59 -17 -23 -25 -37 -30 -73 -30
-38 0 -50 5 -78 36 -19 19 -34 40 -34 45 0 5 -33 9 -73 9 -72 0 -75 -1 -137
-47 l-64 -48 54 -3 c66 -3 90 -24 63 -54 -15 -17 -13 -18 45 -18 42 0 65 -5
76 -16 28 -28 17 -34 -58 -34 -66 0 -75 2 -81 20 -3 11 -18 22 -33 25 -15 4
-49 15 -77 25 -27 11 -75 21 -105 22 l-54 3 79 51 c365 235 736 359 1165 388
99 7 353 -4 455 -19z m-1565 -542 c0 -34 -30 -53 -87 -53 -50 0 -53 1 -53 25
0 20 5 25 25 25 14 0 25 5 25 10 0 6 20 10 45 10 35 0 45 -4 45 -17z m-2 -135
c-3 -21 -8 -23 -62 -23 -33 0 -61 5 -63 11 -4 11 55 31 100 33 24 1 28 -3 25
-21z m3011 -108 l53 -60 -22 -35 -22 -36 -81 3 c-102 4 -114 22 -37 58 l50 23
0 54 c0 29 2 53 4 53 1 0 27 -27 55 -60z m-2825 -129 c3 -5 3 -23 0 -39 -5
-23 -14 -34 -37 -41 -17 -6 -31 -10 -32 -9 -8 10 -36 70 -33 72 30 24 92 34
102 17z m-924 -179 c0 -10 -16 -36 -36 -58 -22 -24 -30 -29 -22 -14 8 14 23
40 32 58 19 36 26 40 26 14z m1120 3 c0 -8 5 -15 10 -15 6 0 10 -12 10 -26 l0
-27 -83 5 c-91 5 -109 11 -100 34 14 36 163 63 163 29z m75 -35 c18 -19 17
-20 -3 -20 -15 0 -22 6 -22 20 0 11 2 20 3 20 2 0 12 -9 22 -20z m105 -60 c0
-5 -5 -12 -11 -16 -14 -8 -33 11 -25 25 7 11 36 4 36 -9z m-230 5 c0 -14 -85
-125 -96 -125 -20 0 -33 25 -27 51 10 41 53 79 90 79 18 0 33 -2 33 -5z m140
-14 c0 -22 -35 -51 -62 -51 -14 0 -18 8 -18 35 0 34 1 35 40 35 33 0 40 -3 40
-19z m83 -47 c20 -5 27 -12 27 -30 0 -20 -5 -24 -33 -24 -39 0 -57 15 -57 48
0 18 4 22 18 18 9 -3 29 -8 45 -12z m-103 -46 c0 -34 -29 -58 -70 -58 -34 0
-37 2 -32 25 3 16 11 25 23 25 11 0 19 4 19 9 0 9 20 17 48 20 6 0 12 -9 12
-21z m2908 -23 c29 -59 28 -65 -8 -65 -30 0 -30 1 -30 55 0 30 4 55 8 55 4 0
18 -20 30 -45z"/>
<path d="M3700 4119 c-36 -8 -60 -32 -60 -60 0 -10 20 -32 45 -49 48 -33 61
-70 25 -70 -21 0 -40 -34 -40 -71 0 -16 7 -19 54 -19 79 0 109 9 130 38 16 21
17 27 5 30 -19 7 -71 62 -86 93 -7 13 -18 45 -25 70 -13 45 -13 45 -48 38z"/>
<path d="M3583 4013 c-26 -5 -73 -77 -73 -111 0 -34 46 -28 108 13 57 39 69
75 33 95 -20 10 -29 11 -68 3z"/>
<path d="M2360 3720 c-8 -14 -21 -20 -46 -20 -28 0 -35 -4 -32 -16 2 -9 10
-21 19 -27 21 -13 69 -1 69 18 0 9 11 20 25 25 29 11 32 25 9 34 -25 10 -33 7
-44 -14z"/>
<path d="M2202 3688 c-22 -22 -14 -48 13 -48 18 0 25 5 25 19 0 26 -23 44 -38
29z"/>
</g>
</svg>
